# AST/ASF file generated using VICON BodyLanguage
# -----------------------------------------------
:version 1.10
:name VICON
:units
  mass 1.0
  length 0.45
  angle deg
:documentation
   .ast/.asf automatically generated from VICON data using
   VICON BodyBuilder and BodyLanguage model FoxedUp or BRILLIANT.MOD
:root
   order TX TY TZ RX RY RZ
   axis XYZ
   position 0 0 0  
   orientation 0 0 0 
:bonedata
  begin
     id 1 
     name lhipjoint
     direction 0.646657 -0.683706 0.338203 
     length 2.4948 
     axis 0 0 0  XYZ
  end
  begin
     id 2 
     name lfemur
     direction 0.34202 -0.939693 0  
     length 6.79491  
     axis 0 0 20  XYZ
    dof rx ry rz
    limits (-160.0 20.0)
           (-70.0 70.0)
           (-60.0 70.0)
  end
  begin
     id 3 
     name ltibia
     direction 0.34202 -0.939693 0   
     length 7.56807   
     axis 0 0 20   XYZ
    dof rx
    limits (-10.0 170.0)
  end
  begin
     id 4 
     name lfoot
     direction 0.0679796 -0.186772 0.980048   
     length 2.53018   
     axis -90 7.62852e-016 20   XYZ
    dof rx rz
    limits (-45.0 90.0)
           (-70.0 20.0)
  end
  begin
     id 5 
     name ltoes
     direction 1.53625e-011 -4.21881e-011 1   
     length 1.26912   
     axis -90 7.62852e-016 20   XYZ
    dof rx
    limits (-90.0 20.0)
  end
  begin
     id 6 
     name rhipjoint
     direction -0.618868 -0.704065 0.348274   
     length 2.42265  
     axis 0 0 0  XYZ 
  end
  begin
     id 7 
     name rfemur
     direction -0.34202 -0.939693 0   
     length 6.73814   
     axis 0 0 -20   XYZ
    dof rx ry rz
    limits (-160.0 20.0)
           (-70.0 70.0)
           (-70.0 60.0)
  end
  begin
     id 8 
     name rtibia
     direction -0.34202 -0.939693 0   
     length 7.66799   
     axis 0 0 -20   XYZ
    dof rx
    limits (-10.0 170.0)
 end
 begin
     id 9 
     name rfoot
     direction -0.0727352 -0.199838 0.977125   
     length 2.57224  
     axis -90 -7.62852e-016 -20   XYZ
    dof rx rz
    limits (-45.0 90.0)
           (-20.0 70.0)
  end
  begin
     id 10 
     name rtoes
     direction -1.53501e-011 -4.21858e-011 1   
     length 1.28858   
     axis -90 -7.62852e-016 -20   XYZ
    dof rx
    limits (-90.0 20.0)
  end
  begin
     id 11 
     name lowerback
     direction -0.0172471 0.995767 -0.0902851   
     length 2.20206   
     axis 0 0 0   XYZ
    dof rx ry rz
    limits (-20.0 45.0)
           (-30.0 30.0)
           (-30.0 30.0)
  end
  begin
     id 12 
     name upperback
     direction -0.000110737 0.999714 0.0239043   
     length 2.19523   
     axis 0 0 0   XYZ
    dof rx ry rz
    limits (-20.0 45.0)
           (-30.0 30.0)
           (-30.0 30.0)
  end
  begin
     id 13 
     name thorax
     direction 0.00704869 0.997783 0.0661741   
     length 2.21977   
     axis 0 0 0   XYZ
    dof rx ry rz
    limits (-20.0 45.0)
           (-30.0 30.0)
           (-30.0 30.0)
  end
  begin
     id 14 
     name lowerneck
     direction -0.00407501 0.995527 0.0943846   
     length 1.83142   
     axis 0 0 0   XYZ
    dof rx ry rz
    limits (-20.0 45.0)
           (-30.0 30.0)
           (-30.0 30.0)
  end
  begin
     id 15 
     name upperneck
     direction 0.0640586 0.986486 -0.150807   
     length 1.84616   
     axis 0 0 0   XYZ
    dof rx ry rz
    limits (-20.0 45.0)
           (-30.0 30.0)
           (-30.0 30.0)
  end
  begin
     id 16
     name head
     direction 0.0188017 0.99791 -0.0618239  
     length 1.85932  
     axis 0 0 0   XYZ
    dof rx ry rz
    limits (-20.0 45.0)
           (-30.0 30.0)
           (-30.0 30.0)
  end
  begin
     id 17 
     name lclavicle
     direction 0.976074 0.206905 0.066852  
     length 3.81043  
     axis 0 0 0   XYZ
    dof ry rz
    limits (-20.0 10.0)
           (0.0 20.0)
  end
  begin
     id 18 
     name lhumerus
     direction 1 -4.48971e-011 1.86916e-027   
     length 5.37587   
     axis 180 -30 -90   XYZ
    dof rx ry rz
    limits (-60.0 90.0)
           (-90.0 90.0)
           (-90.0 90.0)
  end
  begin
     id 19
     name lradius
     direction 1 -4.48968e-011 1.69187e-027   
     length 3.35977   
     axis 180 -30 -90   XYZ
    dof rx
    limits (-10.0 170.0)
  end
  begin
     id 20
     name lwrist
     direction 1 -4.48968e-011 5.8978e-027   
     length 1.67988   
     axis -3.27506e-015 90 90   XYZ
    dof ry
    limits (-180.0 0.0)
 end
  begin
     id 21 
     name lhand
     direction 1 -4.49028e-011 1.18071e-026   
     length 0.561859   
     axis -7.52654e-015 90 90   XYZ
    dof rx rz
    limits (-90.0 90.0)
           (-45.0 45.0)
  end
  begin
     id 22 
     name lfingers
     direction 1 -4.48927e-011 2.35758e-026   
     length 0.452985   
     axis -1.50534e-014 90 90   XYZ
    dof rx
    limits (0.0 90.0)
  end
  begin
     id 23
     name lthumb
     direction 0.707107 -6.34898e-011 0.707107   
     length 0.650399   
     axis -90 45 5.69224e-014   XYZ
    dof rx rz
    limits (-45.0 45.0)
           (-45.0 45.0)
  end
  begin
     id 24 
     name rclavicle
     direction -0.988403 0.151789 0.00439714   
     length 3.6942  
     axis 0 0 0   XYZ 
    dof ry rz
    limits (-10.0 20.0)
           (-20.0 0.0)
  end
  begin
     id 25 
     name rhumerus
     direction -1 -4.48978e-011 1.62495e-027  
     length 5.22819   
     axis 180 30 90   XYZ
    dof rx ry rz
    limits (-90.0 60.0)
           (-90.0 90.0)
           (-90.0 90.0)
  end
  begin
     id 26 
     name rradius
     direction -1 -4.48961e-011 3.47796e-027   
     length 3.40764   
     axis 180 30 90   XYZ
    dof rx
    limits (-10.0 170.0)
  end
  begin
     id 27 
     name rwrist
     direction -1 -4.48949e-011 5.89602e-027   
     length 1.70382   
     axis -3.27506e-015 -90 -90   XYZ
    dof ry
    limits (-180.0 0.0)
  end
  begin
     id 28
     name rhand
     direction -1 -4.48977e-011 1.17973e-026   
     length 0.583255   
     axis -7.52654e-015 -90 -90   XYZ
    dof rx rz
    limits (-90.0 90.0)
           (-45.0 45.0)
  end
  begin
     id 29
     name rfingers
     direction -1 -4.49099e-011 2.36408e-026   
     length 0.470235   
     axis -1.50534e-014 -90 -90   XYZ
    dof rx
    limits (0.0 90.0)
  end
  begin
     id 30
     name rthumb
     direction -0.707107 -6.35011e-011 0.707107   
     length 0.675167   
     axis -90 -45 -5.69224e-014   XYZ
    dof rx rz
    limits (-45.0 45.0)
           (-45.0 45.0)
  end
:hierarchy
  begin
    root lhipjoint rhipjoint lowerback
    lhipjoint lfemur
    lfemur ltibia
    ltibia lfoot
    lfoot ltoes
    rhipjoint rfemur
    rfemur rtibia
    rtibia rfoot
    rfoot rtoes
    lowerback upperback
    upperback thorax
    thorax lowerneck lclavicle rclavicle
    lowerneck upperneck
    upperneck head
    lclavicle lhumerus
    lhumerus lradius
    lradius lwrist
    lwrist lhand lthumb
    lhand lfingers
    rclavicle rhumerus
    rhumerus rradius
    rradius rwrist
    rwrist rhand rthumb
    rhand rfingers
  end

#!OML:ASF G:\JayActor3\Patient Classification 1\Patient 1\Session 2\male.ASF
:FULLY-SPECIFIED
:DEGREES
353
root 28.0394 15.8753 -5.04123 360.397 -67.9484 -324.847
lowerback 29.2128 -4.2232 -2.43042
upperback 15.2021 -6.86897 4.89517
thorax 2.25006 -4.28353 8.59058
lowerneck -4.14774 -0.826858 -1.90603
upperneck -14.4896 -0.953006 4.93069
head -3.98982 -0.776014 2.02211
rclavicle -2.18663e-015 -4.60683e-014
rhumerus -28.3896 1.29401 -57.1703
rradius 88.309
rwrist -19.5415
rhand -23.6512 2.45975
rfingers 7.12502
rthumb 2.81419 -27.5014
lclavicle -2.18663e-015 -4.60683e-014
lhumerus 38.3616 -19.7411 71.5439
lradius 62.6688
lwrist 27.2016
lhand -18.5805 12.3162
lfingers 7.12502
lthumb 7.71006 42.1557
rfemur -78.5033 -2.94582 18.9123
rtibia 55.9451
rfoot -7.71163 -11.7835
rtoes 25.2724
lfemur -31.9017 21.8559 -53.7794
ltibia 32.7931
lfoot 14.7735 -29.6208
ltoes 31.0325
354
root 27.8883 15.7978 -5.02185 360.171 -67.9809 -324.724
lowerback 29.0746 -4.0756 -2.36408
upperback 15.173 -6.6666 4.77756
thorax 2.21086 -4.16489 8.35756
lowerneck -4.2953 -0.939173 -2.06528
upperneck -14.2696 -1.09104 5.05315
head -3.87722 -0.833623 2.08721
rclavicle 3.57812e-014 -4.81556e-014
rhumerus -28.6261 0.481829 -56.4971
rradius 88.4547
rwrist -19.7653
rhand -23.8054 2.54597
rfingers 7.12502
rthumb 2.66525 -27.4171
lclavicle 3.57812e-014 -4.81556e-014
lhumerus 35.6196 -19.9465 74.0069
lradius 62.0305
lwrist 28.2882
lhand -19.7723 12.4819
lfingers 7.12502
lthumb 6.55968 42.3604
rfemur -78.168 -1.63696 17.8123
rtibia 56.8032
rfoot -9.73221 -12.9693
rtoes 25.2609
lfemur -33.282 21.2021 -53.1238
ltibia 36.6944
lfoot 14.02 -29.2228
ltoes 29.8314
355
root 27.7438 15.7364 -5.00303 360.175 -68.2396 -324.847
lowerback 29.2604 -3.85349 -2.28773
upperback 15.134 -6.37123 4.70557
thorax 2.00927 -4.00085 8.18386
lowerneck -4.25999 -1.04459 -2.2497
upperneck -14.2775 -1.21769 5.18215
head -3.88127 -0.891681 2.1673
rclavicle 2.38542e-015 6.60959e-014
rhumerus -28.4888 -0.217465 -55.7142
rradius 88.5783
rwrist -20.2059
rhand -23.9825 2.65879
rfingers 7.12502
rthumb 2.49422 -27.3064
lclavicle 2.38542e-015 6.60959e-014
lhumerus 32.9825 -19.7748 76.1174
lradius 61.5311
lwrist 29.1751
lhand -21.035 12.656
lfingers 7.12502
lthumb 5.34057 42.5687
rfemur -77.9832 -0.448735 17.2326
rtibia 57.6538
rfoot -11.4156 -13.8874
rtoes 26.0495
lfemur -35.0929 20.6819 -52.3885
ltibia 40.9369
lfoot 13.7659 -28.3227
ltoes 28.4843
356
root 27.6047 15.6938 -4.98315 360.195 -68.6468 -324.999
lowerback 29.7377 -3.58177 -2.27325
upperback 15.0997 -6.0329 4.65894
thorax 1.69188 -3.82157 8.09079
lowerneck -4.04806 -1.12943 -2.44892
upperneck -14.4703 -1.3134 5.33109
head -3.98631 -0.94001 2.26463
rclavicle 3.97569e-015 -4.56211e-014
rhumerus -27.9067 -0.804216 -54.8886
rradius 88.6233
rwrist -20.7925
rhand -24.1677 2.75959
rfingers 7.12502
rthumb 2.3154 -27.2076
lclavicle 3.97569e-015 -4.56211e-014
lhumerus 30.4875 -19.2146 77.9457
lradius 61.1239
lwrist 29.767
lhand -22.1987 12.9144
lfingers 7.12502
lthumb 4.21689 42.8524
rfemur -77.8155 0.483418 17.1271
rtibia 58.4181
rfoot -12.6038 -14.4739
rtoes 26.3324
lfemur -37.1439 20.2072 -51.6076
ltibia 45.2843
lfoot 14.0583 -26.9477
ltoes 27.1287
357
root 27.4689 15.6739 -4.96074 360.104 -69.1619 -325.027
lowerback 30.6123 -3.276 -2.34287
upperback 15.0454 -5.71706 4.86083
thorax 1.12879 -3.64682 7.83373
lowerneck -3.7069 -1.18471 -2.64628
upperneck -14.7512 -1.36563 5.50784
head -4.15038 -0.970587 2.37625
rclavicle 8.3092e-014 -5.7896e-014
rhumerus -26.8359 -1.2925 -54.0997
rradius 88.5191
rwrist -21.3906
rhand -24.3965 2.89958
rfingers 7.12502
rthumb 2.09446 -27.0699
lclavicle 8.3092e-014 -5.7896e-014
lhumerus 28.1165 -18.2597 79.5647
lradius 60.7921
lwrist 30.0199
lhand -23.1979 13.1858
lfingers 7.12502
lthumb 3.25198 43.1407
rfemur -77.5558 1.13738 17.3345
rtibia 58.9841
rfoot -13.3762 -14.6576
rtoes 26.2175
lfemur -39.3206 19.704 -50.8078
ltibia 49.5589
lfoot 14.788 -25.1952
ltoes 25.7952
358
root 27.3346 15.6787 -4.93649 359.94 -69.726 -324.925
lowerback 31.3279 -2.96049 -2.54088
upperback 15.0323 -5.39454 4.81368
thorax 0.801105 -3.49502 7.85186
lowerneck -3.28859 -1.21219 -2.83098
upperneck -15.0115 -1.37561 5.72251
head -4.32521 -0.98202 2.50017
rclavicle 2.38542e-014 -3.42407e-014
rhumerus -25.2751 -1.69679 -53.4492
rradius 88.189
rwrist -21.7998
rhand -24.688 3.0389
rfingers 7.12502
rthumb 1.81294 -26.9331
lclavicle 2.38542e-014 -3.42407e-014
lhumerus 25.9085 -16.9311 80.9447
lradius 60.4637
lwrist 30.0299
lhand -24.0422 13.4012
lfingers 7.12502
lthumb 2.43658 43.3671
rfemur -77.1617 1.49312 17.7382
rtibia 59.2428
rfoot -13.7916 -14.377
rtoes 25.9416
lfemur -41.5745 19.0823 -49.9744
ltibia 53.654
lfoot 15.77 -23.1832
ltoes 24.2456
359
root 27.2003 15.7082 -4.91242 359.962 -70.3117 -324.9
lowerback 31.9428 -2.66019 -2.77255
upperback 15.033 -5.105 4.75508
thorax 0.537014 -3.36235 7.87268
lowerneck -2.74572 -1.21976 -3.00639
upperneck -15.5969 -1.30617 6.17602
head -4.13249 -0.989971 2.4508
rclavicle 3.29983e-014 3.53837e-014
rhumerus -23.2841 -2.01174 -53.033
rradius 87.5897
rwrist -21.8368
rhand -25.0844 3.17514
rfingers 7.12502
rthumb 1.43008 -26.7998
lclavicle 3.29983e-014 3.53837e-014
lhumerus 23.8256 -15.2883 82.0751
lradius 60.1194
lwrist 29.8899
lhand -24.7809 13.5924
lfingers 7.12502
lthumb 1.72317 43.5651
rfemur -76.6545 1.57762 18.354
rtibia 59.1283
rfoot -13.9225 -13.6674
rtoes 25.7111
lfemur -43.9442 18.2673 -49.0303
ltibia 57.5472
lfoot 16.8577 -21.0741
ltoes 22.319
360
root 27.0653 15.7606 -4.89067 360.457 -70.9119 -325.202
lowerback 32.3637 -2.38873 -2.95844
upperback 15.0436 -4.83946 4.68954
thorax 0.358944 -3.23964 7.85321
lowerneck -2.30955 -1.22788 -3.1152
upperneck -15.6378 -1.2759 6.48852
head -4.21317 -0.987316 2.56924
rclavicle -8.34896e-015 -1.67476e-014
rhumerus -20.9652 -2.23168 -52.9025
rradius 86.7329
rwrist -21.4019
rhand -25.5644 3.27312
rfingers 7.12502
rthumb 0.966433 -26.7044
lclavicle -8.34896e-015 -1.67476e-014
lhumerus 21.8548 -13.4269 82.9232
lradius 59.7393
lwrist 29.7423
lhand -25.5557 13.8029
lfingers 7.12502
lthumb 0.974856 43.7805
rfemur -76.0779 1.44733 19.2482
rtibia 58.6347
rfoot -13.8206 -12.6306
rtoes 25.6539
lfemur -46.4806 17.2379 -47.8863
ltibia 61.2622
lfoot 17.9981 -19.0134
ltoes 20.3937
361
root 26.9317 15.8296 -4.87262 361.572 -71.5436 -325.948
lowerback 32.5388 -2.1322 -3.07051
upperback 15.0613 -4.56849 4.62533
thorax 0.275556 -3.11115 7.77919
lowerneck -1.89406 -1.25154 -3.17949
upperneck -15.5997 -1.26405 6.82903
head -4.26577 -0.996372 2.68811
rclavicle 7.95139e-014 3.68497e-014
rhumerus -18.4716 -2.35577 -53.0339
rradius 85.7017
rwrist -20.545
rhand -26.0825 3.36654
rfingers 7.12502
rthumb 0.466022 -26.6127
lclavicle 7.95139e-014 3.68497e-014
lhumerus 19.99 -11.4605 83.486
lradius 59.3001
lwrist 29.6583
lhand -26.4705 14.0452
lfingers 7.12502
lthumb 0.0913073 44.0249
rfemur -75.539 1.16883 20.4376
rtibia 57.8238
rfoot -13.4647 -11.3754
rtoes 25.7548
lfemur -49.2637 16.0111 -46.5304
ltibia 64.8544
lfoot 18.968 -17.2004
ltoes 18.567
362
root 26.8005 15.9112 -4.85813 363.23 -72.1752 -327.092
lowerback 32.4964 -1.88375 -3.11204
upperback 15.0969 -4.28424 4.56919
thorax 0.286971 -2.97453 7.66046
lowerneck -1.49617 -1.29954 -3.20318
upperneck -15.5813 -1.28382 7.18093
head -4.32021 -1.02585 2.80512
rclavicle 6.40087e-014 -1.90336e-014
rhumerus -15.9789 -2.3899 -53.3599
rradius 84.6477
rwrist -19.4179
rhand -26.5661 3.45018
rfingers 7.12502
rthumb -0.000992883 -26.5296
lclavicle 6.40087e-014 -1.90336e-014
lhumerus 18.2457 -9.51167 83.7754
lradius 58.7821
lwrist 29.692
lhand -27.5971 14.3517
lfingers 7.12502
lthumb -0.996782 44.3291
rfemur -75.0657 0.79485 21.8307
rtibia 56.7928
rfoot -12.9008 -9.98634
rtoes 26.0961
lfemur -52.2389 14.6028 -44.9617
ltibia 68.3479
lfoot 19.6155 -15.6177
ltoes 17.1147
363
root 26.6729 16.0002 -4.84603 365.096 -72.8006 -328.362
lowerback 32.3223 -1.61491 -3.15251
upperback 15.156 -3.97348 4.51746
thorax 0.369931 -2.8274 7.53228
lowerneck -1.09266 -1.3692 -3.19816
upperneck -15.6853 -1.33188 7.52296
head -4.41187 -1.07583 2.91796
rclavicle -8.54774e-015 5.03919e-014
rhumerus -13.6762 -2.33977 -53.78
rradius 83.7487
rwrist -18.2483
rhand -26.9348 3.60334
rfingers 7.12502
rthumb -0.357094 -26.3761
lclavicle -8.54774e-015 5.03919e-014
lhumerus 16.6176 -7.67944 83.8439
lradius 58.1575
lwrist 29.7954
lhand -28.9388 14.6977
lfingers 7.12502
lthumb -2.29257 44.6652
rfemur -74.6364 0.385814 23.2664
rtibia 55.646
rfoot -12.1391 -8.55628
rtoes 26.4389
lfemur -55.309 13.0842 -43.2596
ltibia 71.7432
lfoot 19.7689 -14.1462
ltoes 15.8957
364
root 26.5482 16.0947 -4.83535 366.724 -73.3964 -329.39
lowerback 32.132 -1.30887 -3.26522
upperback 15.2393 -3.63853 4.46172
thorax 0.485999 -2.67432 7.43168
lowerneck -0.681542 -1.45245 -3.17559
upperneck -15.9614 -1.39632 7.84386
head -4.55708 -1.14111 3.02615
rclavicle -5.62561e-014 -4.37326e-015
rhumerus -11.7186 -2.22864 -54.229
rradius 83.1637
rwrist -17.2177
rhand -27.1215 3.80462
rfingers 7.12502
rthumb -0.537411 -26.1744
lclavicle -5.62561e-014 -4.37326e-015
lhumerus 15.0883 -6.03257 83.7582
lradius 57.4099
lwrist 29.8785
lhand -30.3799 15.027
lfingers 7.12502
lthumb -3.68433 44.9749
rfemur -74.1953 -0.0367919 24.557
rtibia 54.4684
rfoot -11.243 -7.15096
rtoes 26.7799
lfemur -58.3167 11.5187 -41.5275
ltibia 74.9985
lfoot 19.3409 -12.6568
ltoes 14.5186
365
root 26.4246 16.1952 -4.82505 367.697 -73.994 -329.854
lowerback 32.058 -0.941988 -3.51895
upperback 15.3373 -3.27282 4.38613
thorax 0.576108 -2.51449 7.38247
lowerneck -0.274682 -1.53561 -3.1572
upperneck -16.3899 -1.45818 8.14257
head -4.74897 -1.21037 3.13248
rclavicle -5.58585e-014 -2.58544e-014
rhumerus -10.2113 -2.05521 -54.6626
rradius 83.0013
rwrist -16.4463
rhand -27.1164 4.05732
rfingers 7.12502
rthumb -0.532472 -25.9218
lclavicle -5.58585e-014 -2.58544e-014
lhumerus 13.6155 -4.58619 83.584
lradius 56.5375
lwrist 29.8378
lhand -31.7404 15.3082
lfingers 7.12502
lthumb -4.99812 45.2293
rfemur -73.648 -0.450626 25.586
rtibia 53.3083
rfoot -10.2512 -5.82249
rtoes 26.9839
lfemur -61.1033 10.0092 -39.8615
ltibia 78.0564
lfoot 18.499 -10.9756
ltoes 13.0915
366
root 26.3002 16.3026 -4.81436 367.762 -74.5957 -329.567
lowerback 32.2092 -0.515458 -3.92589
upperback 15.4296 -2.88478 4.28244
thorax 0.577299 -2.35048 7.38721
lowerneck 0.10958 -1.61048 -3.15623
upperneck -16.9036 -1.50817 8.41556
head -4.9648 -1.27538 3.23647
rclavicle -3.598e-014 -5.80327e-014
rhumerus -9.1989 -1.81223 -55.0786
rradius 83.2897
rwrist -15.9789
rhand -26.9375 4.272
rfingers 7.12502
rthumb -0.359742 -25.7074
lclavicle -3.598e-014 -5.80327e-014
lhumerus 12.1458 -3.32934 83.3758
lradius 55.5398
lwrist 29.5727
lhand -32.8698 15.5088
lfingers 7.12502
lthumb -6.08848 45.4013
rfemur -72.9171 -0.879401 26.3073
rtibia 52.1812
rfoot -9.19951 -4.57108
rtoes 27.1649
lfemur -63.5521 8.62171 -38.3306
ltibia 80.869
lfoot 17.5498 -8.9521
ltoes 11.7905
